<svg width="115" height="115" viewBox="0 0 115 115" fill="none" xmlns="http://www.w3.org/2000/svg">
<g id="eraser 1">
<path id="Vector" d="M68.3421 30.8065C67.0728 29.5291 67.0728 27.4578 68.3421 26.1804C69.6112 24.903 71.6691 24.903 72.9382 26.1804L88.2751 41.6175C89.5445 42.8949 89.5445 44.9662 88.2751 46.2436C87.6406 46.8823 86.8088 47.2019 85.9772 47.2019C85.1456 47.2019 84.3138 46.8823 83.6792 46.2436L68.3421 30.8065ZM109 106.718C109 108.525 107.545 109.99 105.75 109.99C105.75 109.99 41.6919 110 41.6917 110C38.2384 110.001 34.7745 108.892 31.8548 107.058C30.5692 106.251 29.3797 105.286 28.3086 104.208L10.7544 86.5385C3.72788 79.4664 3.03969 68.6519 9.21977 62.4313L61.0647 10.2477C67.2452 4.02707 77.9897 4.72016 85.0158 11.7923L102.57 29.4612C109.597 36.5336 110.285 47.3481 104.105 53.5687L54.5495 103.447H105.75C107.545 103.447 109 104.912 109 106.718ZM26.5743 54.2156L60.4219 88.2841L99.5084 48.9424C103.154 45.2727 102.466 38.6086 97.9737 34.0871L80.4195 16.4183C77.8682 13.8503 74.6296 12.5173 71.64 12.5173C69.3658 12.5173 67.2359 13.2883 65.6604 14.8736L26.5743 54.2156ZM32.9047 99.5815C37.3966 104.103 44.0173 104.795 47.6636 101.126L55.826 92.9103L21.9782 58.8417L13.8159 67.0574C10.17 70.7271 10.8584 77.391 15.3505 81.9124L32.9047 99.5815Z" fill="white"/>
</g>
</svg>
