<svg width="115" height="115" viewBox="0 0 115 115" fill="none" xmlns="http://www.w3.org/2000/svg">
<g id="incognito 1">
<g id="Group">
<path id="Vector" d="M82.7009 96.7354C92.1916 96.7354 99.915 89.0155 99.915 79.5248C99.915 70.0341 92.1916 62.3107 82.7009 62.3107C76.1897 62.3107 70.5794 65.9882 67.6551 71.3352H47.8704C44.9467 65.9882 39.3371 62.3107 32.8259 62.3107C23.3352 62.3107 15.6135 70.0341 15.6135 79.5248C15.6135 89.0155 23.3352 96.7354 32.8259 96.7354C42.3166 96.7354 50.0382 89.0155 50.0382 79.5248C50.0382 79.1604 49.953 78.8192 49.9306 78.4602H65.5944C65.572 78.8192 65.4868 79.1603 65.4868 79.5248C65.4868 89.0155 73.2102 96.7354 82.7009 96.7354ZM82.7009 69.4356C88.2638 69.4356 92.79 73.9618 92.79 79.5247C92.79 85.0877 88.2638 89.6104 82.7009 89.6104C77.138 89.6104 72.6118 85.0877 72.6118 79.5247C72.6118 73.9618 77.1379 69.4356 82.7009 69.4356ZM32.8259 89.6104C27.263 89.6104 22.7385 85.0877 22.7385 79.5248C22.7385 73.9619 27.263 69.4357 32.8259 69.4357C38.3888 69.4357 42.9132 73.9619 42.9132 79.5248C42.9132 85.0877 38.3888 89.6104 32.8259 89.6104Z" fill="white"/>
<path id="Vector_2" d="M108.616 53.5888C103.016 51.9887 97.3584 50.6817 91.6685 49.6204L86.1923 21.9779C85.9786 20.9449 85.3374 20.0542 84.4468 19.5555C83.5205 19.0567 82.4161 18.9856 81.4544 19.3417C66.1711 25.113 49.3562 25.113 34.0729 19.3417C33.1112 18.9499 32.0069 19.0566 31.1162 19.5555C30.19 20.0542 29.5487 20.9449 29.335 21.9779L23.8588 49.6204C18.1683 50.6817 12.5103 51.9887 6.90933 53.5888C5.0185 54.1315 3.92261 56.1041 4.46361 57.9932C5.00461 59.8858 6.97545 60.9608 8.86803 60.4424C40.8575 51.2996 74.6716 51.2996 106.661 60.4424C106.988 60.5329 107.315 60.5781 107.639 60.5781C109.19 60.5781 110.617 59.5588 111.065 57.9932C111.605 56.1041 110.509 54.1315 108.616 53.5888ZM31.3567 48.3688L35.5337 27.393C49.9974 31.9529 65.5299 31.9529 79.9936 27.393L84.1597 48.367C66.6451 45.8404 48.872 45.8409 31.3567 48.3688Z" fill="white"/>
</g>
</g>
</svg>
