<svg width="114" height="114" viewBox="0 0 114 114" fill="none" xmlns="http://www.w3.org/2000/svg">
<g id="swap 1" clip-path="url(#clip0_1_50)">
<g id="Group">
<g id="Group_2">
<g id="Group_3">
<path id="Vector" d="M100.446 64.8322C100.461 64.748 100.475 64.6636 100.49 64.5792C100.556 64.1994 100.618 63.8186 100.674 63.437C100.699 63.2664 100.724 63.0961 100.747 62.9251C100.775 62.722 100.801 62.5187 100.826 62.3152C100.859 62.0462 100.889 61.7766 100.916 61.5065C100.939 61.289 100.959 61.071 100.978 60.853C100.999 60.6183 101.017 60.3834 101.034 60.148C101.046 59.9804 101.059 59.8127 101.069 59.6448C101.089 59.3073 101.105 58.9686 101.118 58.6295C101.124 58.4576 101.129 58.2855 101.133 58.1134C101.14 57.8531 101.144 57.5923 101.146 57.3312C101.146 57.2209 101.151 57.1109 101.151 57.0007C101.151 56.6331 101.145 56.2664 101.136 55.9003C101.135 55.8939 101.135 55.8874 101.135 55.881C101.127 55.5606 101.115 55.241 101.1 54.922C101.096 54.8331 101.091 54.7445 101.087 54.6559C101.075 54.4401 101.062 54.2246 101.047 54.0095C101.037 53.8559 101.027 53.7022 101.016 53.5488C101.012 53.5034 101.008 53.4582 101.004 53.4128C100.17 42.9689 95.7058 33.2655 88.2159 25.7792C88.1522 25.7153 88.0847 25.6578 88.0175 25.5997C83.4975 21.1265 77.9808 17.5922 71.7356 15.3814C69.8308 14.7056 67.7538 15.7036 67.08 17.6024C66.4082 19.4995 67.4022 21.586 69.3011 22.258C82.9981 27.108 92.5026 39.5746 93.7227 53.8701C93.7303 53.9618 93.7392 54.0531 93.7464 54.1449C93.7544 54.2466 93.7604 54.3488 93.7675 54.4508C93.7817 54.6597 93.7951 54.8685 93.8058 55.078C93.8085 55.1299 93.8109 55.182 93.8136 55.2339C93.841 55.82 93.8557 56.4082 93.8557 56.9987C93.8557 57.1069 93.8535 57.2145 93.8526 57.3225C93.8508 57.5182 93.8481 57.7139 93.8432 57.9094C93.8394 58.0635 93.8352 58.2173 93.8294 58.371C93.8192 58.6475 93.8062 58.9239 93.7895 59.1999C93.7809 59.3451 93.77 59.4899 93.7595 59.6348C93.7457 59.8274 93.7301 60.0198 93.7134 60.2122C93.698 60.3881 93.682 60.5637 93.6642 60.739C93.6401 60.9743 93.6136 61.2095 93.5851 61.4444C93.5653 61.6069 93.5444 61.769 93.5226 61.9309C93.4999 62.099 93.4749 62.2667 93.45 62.4345C93.4079 62.7158 93.3629 62.9961 93.3146 63.2753C93.2975 63.3746 93.2799 63.4741 93.2621 63.5732C90.9284 76.3954 81.8834 87.2784 69.3015 91.7358C67.4024 92.4058 66.4085 94.4924 67.0805 96.3915C67.61 97.8873 69.0169 98.822 70.5188 98.822C70.9218 98.822 71.3328 98.7548 71.7341 98.6125C81.942 94.9983 90.2047 87.8524 95.3444 78.8464C95.4306 78.7284 95.5118 78.6051 95.5849 78.4744C97.95 74.2307 99.5859 69.6091 100.446 64.8322Z" fill="white"/>
<path id="Vector_2" d="M60.4758 10.7747L40.4109 0.406507C38.6167 -0.516423 36.4192 0.185182 35.4965 1.97359C34.5698 3.76401 35.2732 5.96323 37.0616 6.88795L53.8877 15.5806L44.9362 32.9146C44.0115 34.703 44.7149 36.9042 46.5053 37.8289C47.0408 38.1055 47.612 38.236 48.1751 38.236C49.497 38.236 50.7715 37.5148 51.4217 36.2598L62.0431 15.6871C62.9676 13.8989 62.2642 11.6997 60.4758 10.7747Z" fill="white"/>
<path id="Vector_3" d="M44.7005 91.7336C30.0125 86.5327 20.1441 72.5758 20.1441 56.9985C20.1441 56.2278 20.1679 55.4597 20.2154 54.6946C20.2158 54.6868 20.2165 54.679 20.2169 54.671C20.2312 54.443 20.2479 54.2154 20.2664 53.9879C20.2748 53.8859 20.2844 53.7841 20.2935 53.6822C20.3051 53.5537 20.3167 53.4252 20.3294 53.2972C20.3472 53.1219 20.3663 52.9472 20.3864 52.7726C20.3919 52.7234 20.3975 52.674 20.4033 52.6247C22.0537 38.8536 31.4021 26.9642 44.6985 22.2553C46.5976 21.5854 47.5915 19.4988 46.9196 17.5997C46.2478 15.6989 44.167 14.7029 42.2639 15.3787C29.5068 19.8956 19.7883 29.9282 15.4066 42.2169C15.3505 42.3362 15.2992 42.4594 15.2554 42.587C13.9406 46.3998 13.1617 50.3569 12.9261 54.3827C12.9252 54.3969 12.9248 54.4112 12.9239 54.4252C12.9083 54.695 12.8945 54.9651 12.8838 55.2357C12.8796 55.3396 12.8776 55.4441 12.8742 55.5483C12.8682 55.7344 12.8613 55.9208 12.8578 56.1072C12.8518 56.4035 12.8486 56.7006 12.8486 56.998C12.8486 57.2931 12.8518 57.5874 12.8575 57.8813C13.0423 67.4522 16.2284 76.4831 22.1064 84.0502C22.1859 84.1529 22.2712 84.2479 22.3589 84.3395C27.4084 90.7396 34.2341 95.7684 42.2642 98.6116C42.6672 98.7539 43.0782 98.8211 43.4814 98.8211C44.9833 98.8211 46.3903 97.8844 46.9218 96.3885C47.5935 94.4921 46.5996 92.4056 44.7005 91.7336Z" fill="white"/>
<path id="Vector_4" d="M76.9334 107.107L60.1094 98.4208L69.057 81.0829C69.9817 79.2927 69.2783 77.0932 67.4879 76.1685C65.6957 75.2398 63.4983 75.9512 62.5736 77.7376L51.9522 98.3162C51.0275 100.106 51.7309 102.306 53.5213 103.231L73.5862 113.593C74.1217 113.869 74.6928 114 75.2559 114C76.5778 114 77.8523 113.281 78.5025 112.022C79.4272 110.233 78.7238 108.032 76.9334 107.107Z" fill="white"/>
</g>
</g>
</g>
</g>
<defs>
<clipPath id="clip0_1_50">
<rect width="114" height="114" fill="white"/>
</clipPath>
</defs>
</svg>
