<svg width="115" height="114" viewBox="0 0 115 114" fill="none" xmlns="http://www.w3.org/2000/svg">
<g id="touchscreen 1" clip-path="url(#clip0_1_35)">
<g id="Group">
<path id="Vector" d="M36.1532 80.75C34.8422 80.75 33.7782 79.686 33.7782 78.375V23.75C33.7782 18.5107 38.0389 14.25 43.2782 14.25C48.5174 14.25 52.7782 18.5107 52.7782 23.75V73.625C52.7782 74.936 51.7142 76 50.4032 76C49.0922 76 48.0282 74.936 48.0282 73.625V23.75C48.0282 21.128 45.9002 19 43.2782 19C40.6562 19 38.5282 21.128 38.5282 23.75V78.375C38.5282 79.686 37.4642 80.75 36.1532 80.75Z" fill="white"/>
</g>
<g id="Group_2">
<path id="Vector_2" d="M64.6532 76C63.3422 76 62.2782 74.936 62.2782 73.625V52.25C62.2782 49.628 60.1502 47.5 57.5282 47.5C54.9062 47.5 52.7782 49.628 52.7782 52.25C52.7782 53.561 51.7142 54.625 50.4032 54.625C49.0922 54.625 48.0282 53.561 48.0282 52.25C48.0282 47.0107 52.2889 42.75 57.5282 42.75C62.7674 42.75 67.0282 47.0107 67.0282 52.25V73.625C67.0282 74.936 65.9642 76 64.6532 76Z" fill="white"/>
</g>
<g id="Group_3">
<path id="Vector_3" d="M78.9032 76C77.5922 76 76.5282 74.936 76.5282 73.625V57C76.5282 54.378 74.4002 52.25 71.7782 52.25C69.1562 52.25 67.0282 54.378 67.0282 57C67.0282 58.311 65.9642 59.375 64.6532 59.375C63.3422 59.375 62.2782 58.311 62.2782 57C62.2782 51.7607 66.5389 47.5 71.7782 47.5C77.0174 47.5 81.2782 51.7607 81.2782 57V73.625C81.2782 74.936 80.2142 76 78.9032 76Z" fill="white"/>
</g>
<g id="Group_4">
<path id="Vector_4" d="M74.1533 114H46.665C38.6708 114 30.4248 110.518 24.5965 104.685C18.165 98.249 14.7688 89.0672 14.783 78.1422C14.7878 69.1077 22.345 61.75 31.6218 61.75H36.1533C37.4643 61.75 38.5283 62.814 38.5283 64.125C38.5283 65.436 37.4643 66.5 36.1533 66.5H31.6218C24.9623 66.5 19.5378 71.7297 19.533 78.147C19.5235 87.9225 22.3593 95.7172 27.9548 101.327C33.7925 107.169 41.4448 109.25 46.665 109.25H74.1533C83.3208 109.25 90.7783 101.792 90.7783 92.625V61.75C90.7783 59.128 88.6503 57 86.0283 57C83.4062 57 81.2783 59.128 81.2783 61.75C81.2783 63.061 80.2142 64.125 78.9033 64.125C77.5923 64.125 76.5283 63.061 76.5283 61.75C76.5283 56.5107 80.789 52.25 86.0283 52.25C91.2675 52.25 95.5283 56.5107 95.5283 61.75V92.625C95.5283 104.41 85.938 114 74.1533 114Z" fill="white"/>
</g>
<g id="Group_5">
<path id="Vector_5" d="M59.9032 39.52C59.376 39.52 58.8392 39.3442 58.4022 38.9832C57.3857 38.152 57.2385 36.6605 58.0697 35.644C60.82 32.2715 62.2782 28.158 62.2782 23.75C62.2782 13.2715 53.7567 4.74997 43.2782 4.74997C32.7997 4.74997 24.2782 13.2715 24.2782 23.75C24.2782 28.158 25.7364 32.2715 28.4914 35.644C29.3227 36.6605 29.1754 38.152 28.1589 38.9832C27.1472 39.8192 25.6509 39.6672 24.8197 38.6507C21.3569 34.4185 19.5282 29.2647 19.5282 23.75C19.5282 10.6542 30.1824 -3.05176e-05 43.2782 -3.05176e-05C56.374 -3.05176e-05 67.0282 10.6542 67.0282 23.75C67.0282 29.2647 65.1995 34.4185 61.7415 38.6507C61.2712 39.2255 60.592 39.52 59.9032 39.52Z" fill="white"/>
</g>
</g>
<defs>
<clipPath id="clip0_1_35">
<rect width="114" height="114" fill="white" transform="translate(0.528198 -3.05176e-05)"/>
</clipPath>
</defs>
</svg>
