<svg width="115" height="114" viewBox="0 0 115 114" fill="none" xmlns="http://www.w3.org/2000/svg">
<g id="travel-insurance 1" clip-path="url(#clip0_1_62)">
<g id="Group">
<path id="Vector" d="M35.3081 113.995C35.1276 113.995 34.9519 113.99 34.7714 113.976C32.7004 113.819 30.8051 112.765 29.5701 111.088L19.4004 97.166C19.0251 96.6767 18.6689 96.3157 18.2746 96.0355L3.37863 85.044C1.72563 83.8565 0.661626 81.985 0.485876 79.9425C0.305376 77.862 1.04638 75.81 2.52363 74.2995C4.71813 72.105 8.05263 71.4922 10.8504 72.7462L22.9581 78.0425L46.5086 52.6347C47.2876 51.8082 47.2924 50.8867 47.2259 50.4117C47.1119 49.59 46.6416 48.8727 45.9339 48.4452L6.34263 27.4645C4.23363 26.2057 2.93213 24.187 2.66138 21.8737C2.38588 19.57 3.18388 17.3137 4.84163 15.6892C6.41863 14.117 8.71763 13.4615 10.8361 13.9935L68.5581 26.1772C69.4986 26.3815 70.4771 26.0822 71.1564 25.3792L91.8474 3.41047C93.8946 1.23972 97.4144 -3.05176e-05 101.504 -3.05176e-05C105.542 -3.05176e-05 109.061 1.20647 111.166 3.30597C113.308 5.44822 114.543 9.19597 114.472 13.3285C114.4 17.2852 113.161 20.6767 111.061 22.6385L94.0181 38.7315C93.0634 39.634 91.5576 39.5865 90.6599 38.6365C89.7574 37.6817 89.8001 36.1807 90.7549 35.2782L107.807 19.1757C108.928 18.126 109.674 15.8032 109.722 13.243C109.769 10.4595 109.019 7.87547 107.807 6.66422C106.644 5.50047 104.169 4.74997 101.504 4.74997C98.7966 4.74997 96.4169 5.48622 95.2959 6.66897L74.5906 28.6567C72.7381 30.571 70.1209 31.3737 67.5606 30.8227L9.76738 18.6152C9.17838 18.468 8.60363 18.6532 8.18563 19.0665C7.56813 19.6697 7.28313 20.4867 7.38288 21.3227C7.48263 22.1635 7.95288 22.895 8.67963 23.332L48.2756 44.3127C50.3371 45.5525 51.6291 47.5142 51.9379 49.7657C52.2419 52.003 51.5341 54.226 49.9856 55.8742L25.2999 82.5075C24.6111 83.2532 23.5329 83.4717 22.6066 83.068L8.92663 77.083C7.91013 76.6222 6.67988 76.8597 5.90563 77.634C5.41638 78.1327 5.15988 78.8262 5.22163 79.5245C5.28338 80.2037 5.62063 80.7975 6.18113 81.2012L21.0724 92.188C21.8229 92.7247 22.5116 93.404 23.2099 94.316L33.4081 108.276C33.8166 108.832 34.4484 109.183 35.1371 109.236C35.8069 109.288 36.4529 109.05 36.9374 108.566C37.7449 107.782 37.9681 106.571 37.5264 105.521L31.5461 91.865C31.1424 90.9387 31.3656 89.8605 32.1066 89.1765L44.0291 78.109C44.9839 77.216 46.4944 77.2682 47.3874 78.2325C48.2804 79.1967 48.2234 80.6977 47.2639 81.5907L36.5764 91.5135L41.8821 103.65C43.1029 106.514 42.4521 109.844 40.2671 111.962C38.9656 113.259 37.1749 113.995 35.3081 113.995Z" fill="white"/>
</g>
<g id="Group_2">
<path id="Vector_2" d="M85.9719 114C85.6584 114 85.3449 113.938 85.0504 113.81C83.9199 113.34 57.4719 101.906 57.4719 78.546V58.6957C57.4719 57.6792 58.1226 56.772 59.0869 56.4442L85.2119 47.6235C85.7059 47.4572 86.2379 47.4572 86.7319 47.6235L112.857 56.4442C113.821 56.7672 114.472 57.6745 114.472 58.6957V78.546C114.472 101.906 88.0239 113.34 86.8934 113.815C86.5989 113.938 86.2854 114 85.9719 114ZM62.2219 60.401V78.546C62.2219 96.5247 81.4831 106.846 85.9719 109.012C90.4559 106.842 109.722 96.482 109.722 78.546V60.401L85.9719 52.383L62.2219 60.401Z" fill="white"/>
</g>
<g id="Group_3">
<path id="Vector_3" d="M83.5969 90.25C83.5541 90.25 83.5066 90.25 83.4639 90.2452C82.7894 90.2072 82.1624 89.8842 81.7396 89.357L72.2396 77.482C71.4226 76.456 71.5889 74.9645 72.6101 74.1427C73.6361 73.3257 75.1324 73.492 75.9494 74.5132L83.7916 84.3172L98.5404 69.5685C99.4666 68.6422 100.972 68.6422 101.899 69.5685C102.825 70.4947 102.825 72.0005 101.899 72.9267L85.2736 89.5517C84.8319 90.003 84.2239 90.25 83.5969 90.25Z" fill="white"/>
</g>
</g>
<defs>
<clipPath id="clip0_1_62">
<rect width="114" height="114" fill="white" transform="translate(0.471878 -3.05176e-05)"/>
</clipPath>
</defs>
</svg>
