<svg width="14" height="28" viewBox="0 0 14 28" fill="none" xmlns="http://www.w3.org/2000/svg">
<path id="Arrow 5 1" d="M8.00793 27.5365L13.5967 22.015C14.1396 21.4471 14.1396 20.5321 13.5648 19.9957C12.9899 19.4593 12.0957 19.4593 11.5528 19.9957L8.45504 23.0562L8.45504 1.4198C8.45504 0.631024 7.78438 -2.71693e-07 6.98599 -3.06592e-07C6.18759 -3.41491e-07 5.54887 0.631024 5.54887 1.4198L5.54887 23.0562L2.45108 19.9957C1.87624 19.4593 0.950093 19.4593 0.407183 20.0273C-0.135728 20.5952 -0.135728 21.4786 0.407183 22.015L5.99597 27.5365C6.53888 28.1044 7.43309 28.1675 8.00793 27.6311C8.00793 27.5996 8.03987 27.5996 8.00793 27.5365Z" fill="url(#paint0_linear_0_370)"/>
<defs>
<linearGradient id="paint0_linear_0_370" x1="7" y1="-1.49518e-07" x2="7" y2="28" gradientUnits="userSpaceOnUse">
<stop stop-color="#2CF0D6"/>
<stop offset="1" stop-color="#22CE77"/>
</linearGradient>
</defs>
</svg>
