<svg width="64" height="63" viewBox="0 0 64 63" fill="none" xmlns="http://www.w3.org/2000/svg">
<g id="arrow 1">
<path id="Vector" d="M8.94591 31.1653L30.6022 52.8215C30.7852 53.0061 31.0029 53.1525 31.2428 53.2525C31.4827 53.3524 31.7401 53.4039 32 53.4039C32.2599 53.4039 32.5172 53.3524 32.7571 53.2525C32.997 53.1525 33.2148 53.0061 33.3978 52.8215L55.054 31.1653C55.4207 30.7964 55.6265 30.2974 55.6265 29.7773C55.6265 29.2572 55.4207 28.7582 55.054 28.3894C54.871 28.2048 54.6533 28.0584 54.4134 27.9584C54.1735 27.8585 53.9161 27.807 53.6562 27.807C53.3963 27.807 53.139 27.8585 52.8991 27.9584C52.6592 28.0584 52.4414 28.2048 52.2584 28.3894L32 48.6478L11.7415 28.3894C11.5585 28.2048 11.3408 28.0584 11.1009 27.9584C10.8609 27.8585 10.6036 27.807 10.3437 27.807C10.0838 27.807 9.8265 27.8585 9.58659 27.9584C9.34668 28.0584 9.12893 28.2048 8.94591 28.3894C8.57923 28.7582 8.37341 29.2572 8.37341 29.7773C8.37341 30.2974 8.57923 30.7964 8.94591 31.1653Z" fill="url(#paint0_linear_0_188)"/>
<path id="Vector_2" d="M30.6022 34.6106C30.7852 34.7951 31.0029 34.9416 31.2428 35.0416C31.4827 35.1415 31.7401 35.193 32 35.193C32.2599 35.193 32.5172 35.1415 32.7571 35.0416C32.997 34.9416 33.2148 34.7951 33.3978 34.6106L55.054 12.9544C55.4207 12.5855 55.6265 12.0865 55.6265 11.5664C55.6265 11.0463 55.4207 10.5473 55.054 10.1784C54.871 9.99389 54.6533 9.84743 54.4134 9.74748C54.1735 9.64753 53.9161 9.59607 53.6562 9.59607C53.3963 9.59607 53.139 9.64753 52.8991 9.74748C52.6592 9.84743 52.4414 9.99389 52.2584 10.1784L32 30.4369L11.7415 10.1784C11.5585 9.99389 11.3408 9.84743 11.1009 9.74748C10.8609 9.64753 10.6036 9.59607 10.3437 9.59607C10.0838 9.59607 9.8265 9.64753 9.58659 9.74748C9.34668 9.84743 9.12893 9.99389 8.94591 10.1784C8.57923 10.5473 8.37341 11.0463 8.37341 11.5664C8.37341 12.0865 8.57923 12.5855 8.94591 12.9544L30.6022 34.6106Z" fill="url(#paint1_linear_0_188)"/>
</g>
<defs>
<linearGradient id="paint0_linear_0_188" x1="8.37341" y1="40.6055" x2="55.6265" y2="40.6055" gradientUnits="userSpaceOnUse">
<stop stop-color="#2CF0D6"/>
<stop offset="1" stop-color="#22CE77"/>
</linearGradient>
<linearGradient id="paint1_linear_0_188" x1="8.37341" y1="22.3945" x2="55.6265" y2="22.3945" gradientUnits="userSpaceOnUse">
<stop stop-color="#2CF0D6"/>
<stop offset="1" stop-color="#22CE77"/>
</linearGradient>
</defs>
</svg>
