<svg width="40" height="41" viewBox="0 0 40 41" fill="none" xmlns="http://www.w3.org/2000/svg">
<g id="Cashback" clip-path="url(#clip0_0_483)">
<path id="Vector" d="M1.07064 13.8876L2.92619 14.1831C3.91825 10.3624 6.0627 6.99559 8.97381 4.50395C12.0706 1.85378 16.0397 0.188416 20.4167 0.0154748C25.6127 -0.191095 30.4032 1.7505 33.946 5.054C37.4873 8.35751 39.781 13.0229 39.9849 18.264C40.0611 20.2328 39.8413 22.1376 39.3659 23.9311C39.01 25.2718 38.5083 26.5687 37.8698 27.7982L37.8238 27.723C37.3639 26.9882 36.7163 26.392 35.9492 25.9968C35.6038 25.8189 35.2389 25.6827 34.8619 25.5908C35.2548 24.7573 35.5762 23.883 35.8167 22.9743C36.2113 21.4867 36.3815 19.9477 36.3214 18.4089C36.1571 14.1823 34.3111 10.4232 31.4603 7.76423C28.6095 5.10605 24.7508 3.54477 20.5603 3.7113C17.0381 3.85062 13.8413 5.19332 11.3444 7.33027C9.08889 9.26065 7.40556 11.8388 6.56905 14.7636L8.05952 15.0006C8.56587 15.0798 8.91349 15.5586 8.83492 16.0694C8.80079 16.2928 8.69048 16.4866 8.53492 16.6259L4.36984 20.3674C3.98651 20.7116 3.39762 20.6772 3.05556 20.2897C2.99762 20.2248 2.95079 20.1528 2.91429 20.0783L0.127778 15.2872C-0.131746 14.8412 0.0166668 14.2672 0.45873 14.0053C0.650794 13.8916 0.866667 13.8564 1.07064 13.8876ZM24 17.6611L23.5698 19.4698H20.5825C20.9683 20.7028 21.8103 21.3185 23.1 21.3185C24.5159 21.3185 25.8421 20.8582 27.0746 19.9366V23.6356C26.0508 24.3394 24.8151 24.6917 23.3683 24.6917C21.0286 24.6917 19.296 24.1537 18.1754 23.076C17.0571 21.9991 16.3722 20.7973 16.1206 19.4698H14.3413L14.8079 17.6611H15.896C15.8825 17.5627 15.8754 17.3865 15.8754 17.1359C15.8754 16.8725 15.8825 16.6827 15.896 16.5642H14.5833L15.05 14.7556H16.1206C16.973 11.3552 19.3167 9.65537 23.1468 9.65537C24.3992 9.65537 25.6683 9.99405 26.9532 10.6714L26.0675 14.268C25.1746 13.4417 24.2413 13.0285 23.2706 13.0285C21.9984 13.0285 21.1357 13.6042 20.6897 14.7556H24.2413L23.8119 16.5642H20.3468C20.3341 16.6963 20.327 16.8853 20.327 17.1359V17.6611H24ZM8.77698 37.1883V26.2081C14.146 26.2081 15.0587 25.9639 19.8984 29.0369H23.7016C25.423 29.1401 26.3246 30.9016 24.6508 32.0577C23.3183 33.0449 21.5587 32.9889 19.7548 32.8256C18.5103 32.7631 18.4571 34.4493 19.7548 34.4549C20.2056 34.4909 20.6944 34.3836 21.1214 34.3836C23.3714 34.3804 25.2254 33.9465 26.3603 32.153L26.9294 30.8119L32.5865 27.984C35.4167 27.044 37.4302 30.0305 35.3429 32.109C31.2452 35.1154 27.0444 37.5895 22.7468 39.5879C19.6246 41.5039 16.5032 41.4374 13.3841 39.5879L8.77698 37.1883ZM0.392857 25.1529H7.30238V38.2916H0.392857V25.1529Z" fill="url(#paint0_linear_0_483)"/>
</g>
<defs>
<linearGradient id="paint0_linear_0_483" x1="2.23516e-07" y1="20.5003" x2="39.9997" y2="20.5003" gradientUnits="userSpaceOnUse">
<stop stop-color="#2CF0D6"/>
<stop offset="1" stop-color="#22CE77"/>
</linearGradient>
<clipPath id="clip0_0_483">
<rect width="40" height="41" fill="white"/>
</clipPath>
</defs>
</svg>
