<svg width="40" height="38" viewBox="0 0 40 38" fill="none" xmlns="http://www.w3.org/2000/svg">
<g clip-path="url(#clip0_0_464)">
<path d="M26.1494 17.2246C26.1494 17.6483 25.8076 17.9931 25.3877 17.9931C24.9678 17.9931 24.626 17.6483 24.626 17.2246V12.4726C24.626 12.0489 24.9678 11.7041 25.3877 11.7041C25.8076 11.7041 26.1494 12.0489 26.1494 12.4726V17.2246Z" fill="url(#paint0_linear_0_464)"/>
<path d="M26.1494 37.2285C26.1494 37.6522 25.8076 37.997 25.3877 37.997C24.9678 37.997 24.626 37.6522 24.626 37.2285V32.4765C24.626 32.0528 24.9678 31.708 25.3877 31.708C25.8076 31.708 26.1494 32.0528 26.1494 32.4765V37.2285Z" fill="url(#paint1_linear_0_464)"/>
<path d="M22.7861 16.1675H27.9196C28.2874 16.1675 28.6227 16.3218 28.8701 16.5714C29.1273 16.8309 29.2868 17.1921 29.2868 17.5895V31.7964C29.2868 32.1938 29.1273 32.555 28.8701 32.8144C28.6227 33.064 28.2874 33.2184 27.9196 33.2184H22.7861C22.4183 33.2184 22.083 33.064 21.8356 32.8144C21.5785 32.555 21.4189 32.1938 21.4189 31.7964V17.5895C21.4189 17.1921 21.5785 16.8309 21.8356 16.5714C22.0863 16.3218 22.4215 16.1675 22.7861 16.1675ZM27.262 18.2956H23.4469V31.087H27.262V18.2956Z" fill="url(#paint2_linear_0_464)"/>
<path fill-rule="evenodd" clip-rule="evenodd" d="M22.7865 17.2314H27.9199C28.1152 17.2314 28.2747 17.3924 28.2747 17.5894V31.7963C28.2747 31.9934 28.1152 32.1543 27.9199 32.1543H22.7865C22.5911 32.1543 22.4316 31.9934 22.4316 31.7963V17.5894C22.4349 17.3924 22.5944 17.2314 22.7865 17.2314Z" fill="url(#paint3_linear_0_464)"/>
<path d="M36.79 14.2364C36.79 14.66 36.4482 15.0049 36.0283 15.0049C35.6084 15.0049 35.2666 14.66 35.2666 14.2364V7.83244C35.2666 7.40879 35.6084 7.06396 36.0283 7.06396C36.4482 7.06396 36.79 7.40879 36.79 7.83244V14.2364Z" fill="url(#paint4_linear_0_464)"/>
<path d="M36.79 33.8361C36.79 34.2598 36.4482 34.6046 36.0283 34.6046C35.6084 34.6046 35.2666 34.2598 35.2666 33.8361V27.4355C35.2666 27.0118 35.6084 26.667 36.0283 26.667C36.4482 26.667 36.79 27.0118 36.79 27.4355V33.8361Z" fill="url(#paint5_linear_0_464)"/>
<path d="M33.499 13.1689H38.6325C39.0003 13.1689 39.3356 13.3233 39.583 13.5729C39.8402 13.8323 39.9997 14.1936 39.9997 14.5909V26.5384C39.9997 26.9358 39.8402 27.297 39.583 27.5565C39.3356 27.8061 39.0003 27.9604 38.6325 27.9604H33.499C33.1312 27.9604 32.7959 27.8061 32.5485 27.5565C32.2913 27.297 32.1318 26.9391 32.1318 26.5384V14.5909C32.1318 14.1936 32.2913 13.8323 32.5485 13.5729C32.7959 13.3266 33.1312 13.1689 33.499 13.1689ZM37.9749 15.3003H34.1598V25.8356H37.9749V15.3003Z" fill="url(#paint6_linear_0_464)"/>
<path fill-rule="evenodd" clip-rule="evenodd" d="M33.4994 14.2363H38.6328C38.8281 14.2363 38.9876 14.3972 38.9876 14.5943V26.5417C38.9876 26.7388 38.8281 26.8997 38.6328 26.8997H33.4994C33.304 26.8997 33.1445 26.7388 33.1445 26.5417V14.591C33.1445 14.394 33.304 14.2363 33.4994 14.2363Z" fill="url(#paint7_linear_0_464)"/>
<path d="M15.4072 6.46634C15.4072 6.88998 15.0654 7.23481 14.6455 7.23481C14.2256 7.23481 13.8838 6.88998 13.8838 6.46634V0.768473C13.8838 0.344828 14.2256 0 14.6455 0C15.0654 0 15.4072 0.344828 15.4072 0.768473V6.46634Z" fill="url(#paint8_linear_0_464)"/>
<path d="M15.4072 29.6916C15.4072 30.1152 15.0654 30.46 14.6455 30.46C14.2256 30.46 13.8838 30.1152 13.8838 29.6916V23.997C13.8838 23.5733 14.2256 23.2285 14.6455 23.2285C15.0654 23.2285 15.4072 23.5733 15.4072 23.997V29.6916Z" fill="url(#paint9_linear_0_464)"/>
<path d="M12.0771 5.40234H17.2106C17.5784 5.40234 17.9137 5.55669 18.1611 5.80628C18.4183 6.06573 18.5778 6.42697 18.5778 6.82435V23.3005C18.5778 23.6979 18.4183 24.0592 18.1611 24.3186C17.9137 24.5682 17.5784 24.7225 17.2106 24.7225H12.0771C11.7126 24.7225 11.374 24.5682 11.1266 24.3186C10.8695 24.0592 10.71 23.7012 10.71 23.3005V6.82435C10.71 6.42697 10.8695 6.06573 11.1266 5.80628C11.374 5.55669 11.7126 5.40234 12.0771 5.40234ZM16.5531 7.53042H12.738V22.5912H16.5531V7.53042Z" fill="url(#paint10_linear_0_464)"/>
<path fill-rule="evenodd" clip-rule="evenodd" d="M12.0765 6.46631H17.21C17.4053 6.46631 17.5648 6.62723 17.5648 6.82427V23.3005C17.5648 23.4975 17.4053 23.6584 17.21 23.6584H12.0765C11.8812 23.6584 11.7217 23.4975 11.7217 23.3005V6.82427C11.7217 6.62723 11.8812 6.46631 12.0765 6.46631Z" fill="url(#paint11_linear_0_464)"/>
<path d="M4.69727 31.921C4.69727 32.3446 4.35547 32.6895 3.93555 32.6895C3.51563 32.6895 3.17383 32.3446 3.17383 31.921V25.2543C3.17383 24.8307 3.51563 24.4858 3.93555 24.4858C4.35547 24.4858 4.69727 24.8307 4.69727 25.2543V31.921Z" fill="url(#paint12_linear_0_464)"/>
<path d="M4.69727 9.26779C4.69727 9.69144 4.35547 10.0363 3.93555 10.0363C3.51563 10.0363 3.17383 9.69144 3.17383 9.26779V2.60441C3.17383 2.18077 3.51563 1.83594 3.93555 1.83594C4.35547 1.83594 4.69727 2.18077 4.69727 2.60441V9.26779Z" fill="url(#paint13_linear_0_464)"/>
<path d="M1.36719 8.39746H6.50065C6.86849 8.39746 7.20378 8.55181 7.45117 8.8014C7.70833 9.06084 7.86784 9.42209 7.86784 9.81946V24.8999C7.86784 25.2973 7.70833 25.6585 7.45117 25.918C7.20378 26.1676 6.86849 26.3219 6.50065 26.3219H1.36719C0.999349 26.3219 0.664062 26.1676 0.416667 25.918C0.159505 25.6585 0 25.2973 0 24.8999V9.81946C0 9.42209 0.159505 9.06084 0.416667 8.8014C0.664062 8.55181 0.999349 8.39746 1.36719 8.39746ZM5.8431 10.5255H2.02474V24.1906H5.83984V10.5255H5.8431Z" fill="url(#paint14_linear_0_464)"/>
<path fill-rule="evenodd" clip-rule="evenodd" d="M1.36751 9.46143H6.50098C6.69629 9.46143 6.85579 9.62235 6.85579 9.81939V24.8998C6.85579 25.0969 6.69629 25.2578 6.50098 25.2578H1.36751C1.1722 25.2578 1.0127 25.0969 1.0127 24.8998V9.81939C1.0127 9.62235 1.1722 9.46143 1.36751 9.46143Z" fill="url(#paint15_linear_0_464)"/>
</g>
<defs>
<linearGradient id="paint0_linear_0_464" x1="24.626" y1="14.8486" x2="26.1494" y2="14.8486" gradientUnits="userSpaceOnUse">
<stop stop-color="#2CF0D6"/>
<stop offset="1" stop-color="#22CE77"/>
</linearGradient>
<linearGradient id="paint1_linear_0_464" x1="24.626" y1="34.8525" x2="26.1494" y2="34.8525" gradientUnits="userSpaceOnUse">
<stop stop-color="#2CF0D6"/>
<stop offset="1" stop-color="#22CE77"/>
</linearGradient>
<linearGradient id="paint2_linear_0_464" x1="21.4189" y1="24.6929" x2="29.2868" y2="24.6929" gradientUnits="userSpaceOnUse">
<stop stop-color="#2CF0D6"/>
<stop offset="1" stop-color="#22CE77"/>
</linearGradient>
<linearGradient id="paint3_linear_0_464" x1="22.4316" y1="24.6929" x2="28.2747" y2="24.6929" gradientUnits="userSpaceOnUse">
<stop stop-color="#2CF0D6"/>
<stop offset="1" stop-color="#22CE77"/>
</linearGradient>
<linearGradient id="paint4_linear_0_464" x1="35.2666" y1="11.0344" x2="36.79" y2="11.0344" gradientUnits="userSpaceOnUse">
<stop stop-color="#2CF0D6"/>
<stop offset="1" stop-color="#22CE77"/>
</linearGradient>
<linearGradient id="paint5_linear_0_464" x1="35.2666" y1="30.6358" x2="36.79" y2="30.6358" gradientUnits="userSpaceOnUse">
<stop stop-color="#2CF0D6"/>
<stop offset="1" stop-color="#22CE77"/>
</linearGradient>
<linearGradient id="paint6_linear_0_464" x1="32.1318" y1="20.5647" x2="39.9997" y2="20.5647" gradientUnits="userSpaceOnUse">
<stop stop-color="#2CF0D6"/>
<stop offset="1" stop-color="#22CE77"/>
</linearGradient>
<linearGradient id="paint7_linear_0_464" x1="33.1445" y1="20.568" x2="38.9876" y2="20.568" gradientUnits="userSpaceOnUse">
<stop stop-color="#2CF0D6"/>
<stop offset="1" stop-color="#22CE77"/>
</linearGradient>
<linearGradient id="paint8_linear_0_464" x1="13.8838" y1="3.61741" x2="15.4072" y2="3.61741" gradientUnits="userSpaceOnUse">
<stop stop-color="#2CF0D6"/>
<stop offset="1" stop-color="#22CE77"/>
</linearGradient>
<linearGradient id="paint9_linear_0_464" x1="13.8838" y1="26.8443" x2="15.4072" y2="26.8443" gradientUnits="userSpaceOnUse">
<stop stop-color="#2CF0D6"/>
<stop offset="1" stop-color="#22CE77"/>
</linearGradient>
<linearGradient id="paint10_linear_0_464" x1="10.71" y1="15.0624" x2="18.5778" y2="15.0624" gradientUnits="userSpaceOnUse">
<stop stop-color="#2CF0D6"/>
<stop offset="1" stop-color="#22CE77"/>
</linearGradient>
<linearGradient id="paint11_linear_0_464" x1="11.7217" y1="15.0624" x2="17.5648" y2="15.0624" gradientUnits="userSpaceOnUse">
<stop stop-color="#2CF0D6"/>
<stop offset="1" stop-color="#22CE77"/>
</linearGradient>
<linearGradient id="paint12_linear_0_464" x1="3.17383" y1="28.5876" x2="4.69727" y2="28.5876" gradientUnits="userSpaceOnUse">
<stop stop-color="#2CF0D6"/>
<stop offset="1" stop-color="#22CE77"/>
</linearGradient>
<linearGradient id="paint13_linear_0_464" x1="3.17383" y1="5.9361" x2="4.69727" y2="5.9361" gradientUnits="userSpaceOnUse">
<stop stop-color="#2CF0D6"/>
<stop offset="1" stop-color="#22CE77"/>
</linearGradient>
<linearGradient id="paint14_linear_0_464" x1="4.3965e-08" y1="17.3597" x2="7.86784" y2="17.3597" gradientUnits="userSpaceOnUse">
<stop stop-color="#2CF0D6"/>
<stop offset="1" stop-color="#22CE77"/>
</linearGradient>
<linearGradient id="paint15_linear_0_464" x1="1.0127" y1="17.3596" x2="6.85579" y2="17.3596" gradientUnits="userSpaceOnUse">
<stop stop-color="#2CF0D6"/>
<stop offset="1" stop-color="#22CE77"/>
</linearGradient>
<clipPath id="clip0_0_464">
<rect width="40" height="38" fill="white"/>
</clipPath>
</defs>
</svg>
