<svg width="17" height="17" viewBox="0 0 17 17" fill="none" xmlns="http://www.w3.org/2000/svg">
<g id="left-arrow 1">
<g id="Group">
<g id="Group_2">
<path id="Vector" d="M6.86247 8.50359L13.2221 2.14366C13.3972 1.96896 13.4936 1.73538 13.4936 1.48633C13.4936 1.23713 13.3972 1.00369 13.2221 0.828715L12.6649 0.271724C12.49 0.0964715 12.2563 0 12.0072 0C11.7582 0 11.5248 0.0964715 11.3498 0.271724L3.77759 7.84377C3.60192 8.0193 3.50573 8.25385 3.50642 8.50318C3.50573 8.75362 3.60179 8.98789 3.77759 9.16355L11.3427 16.7283C11.5177 16.9035 11.7511 17 12.0003 17C12.2494 17 12.4828 16.9035 12.6579 16.7283L13.2151 16.1713C13.5776 15.8088 13.5776 15.2186 13.2151 14.8562L6.86247 8.50359Z" fill="black"/>
</g>
</g>
</g>
</svg>
