<svg width="24" height="24" viewBox="0 0 24 24" fill="none" xmlns="http://www.w3.org/2000/svg">
<path d="M18.6593 14.8405C18.6193 14.8315 18.5779 14.8306 18.5375 14.8377C18.4972 14.8449 18.4586 14.8599 18.424 14.882C18.3895 14.904 18.3596 14.9327 18.3362 14.9663C18.3127 15 18.2962 15.0379 18.2874 15.078L18.0249 16.2561C17.7578 15.7666 17.3471 15.3707 16.8482 15.1216C16.3493 14.8725 15.7861 14.7823 15.2343 14.8629C14.6825 14.9436 14.1687 15.1914 13.762 15.5728C13.3553 15.9543 13.0751 16.4512 12.9593 16.9967C12.6635 16.8393 12.3335 16.7569 11.9984 16.7569C11.6633 16.7569 11.3333 16.8393 11.0374 16.9967C10.9174 16.4541 10.6353 15.9608 10.2285 15.5823C9.82163 15.2037 9.30932 14.9578 8.7595 14.8771C8.20968 14.7965 7.64832 14.8849 7.14989 15.1306C6.65146 15.3763 6.23951 15.7678 5.96869 16.253L5.71244 15.0998C5.69289 15.0204 5.64297 14.9518 5.57339 14.9088C5.5038 14.8658 5.42012 14.8517 5.34032 14.8697C5.26052 14.8878 5.19097 14.9363 5.14661 15.0051C5.10224 15.0738 5.08661 15.1572 5.10307 15.2373L5.63119 17.6123C5.80825 21.1117 10.7834 21.2072 11.0906 17.7217C11.3422 17.5037 11.6639 17.3837 11.9968 17.3837C12.3297 17.3837 12.6515 17.5037 12.9031 17.7217C12.9062 17.7967 12.9124 17.8717 12.9218 17.9467C13.0168 18.6284 13.3655 19.2492 13.8982 19.685C14.4309 20.1209 15.1084 20.3397 15.7954 20.2979C16.4824 20.2561 17.1283 19.9566 17.6042 19.4594C18.08 18.9621 18.3508 18.3036 18.3624 17.6154L18.8968 15.2155C18.9149 15.1343 18.9 15.0492 18.8555 14.9789C18.811 14.9086 18.7405 14.8588 18.6593 14.8405Z" fill="#939393"/>
<path d="M18.8686 9.4941C18.4049 9.3158 17.9299 9.1686 17.4467 9.05347C17.0342 8.03472 16.4561 6.5441 15.7123 4.60972C15.638 4.41592 15.5214 4.24107 15.3712 4.09784C15.2209 3.95462 15.0407 3.8466 14.8436 3.7816C14.646 3.71565 14.4363 3.69406 14.2294 3.71836C14.0226 3.74267 13.8236 3.81227 13.6467 3.92222L12.4342 4.68472C12.308 4.76137 12.1631 4.80191 12.0154 4.80191C11.8678 4.80191 11.7229 4.76137 11.5967 4.68472L10.3623 3.90972C10.1867 3.80237 9.98986 3.73445 9.78541 3.71068C9.58095 3.68691 9.37378 3.70784 9.17821 3.77204C8.98265 3.83624 8.80337 3.94216 8.65278 4.08248C8.5022 4.2228 8.3839 4.39417 8.30607 4.58472L6.51545 9.06285C5.04357 9.38171 3.16456 10.2501 3.24987 11.2723C3.38321 14.981 20.6166 14.9816 20.7498 11.2722C20.7498 10.7941 20.4217 10.1003 18.8686 9.4941Z" fill="#939393"/>
<line x1="2.35355" y1="1.64645" x2="22.3536" y2="21.6464" stroke="#939393"/>
</svg>
