<svg width="24" height="24" viewBox="0 0 24 24" fill="none" xmlns="http://www.w3.org/2000/svg">
<rect x="0.5" y="0.5" width="23" height="23" rx="11.5" stroke="#939393"/>
<path d="M16.6616 13.9886C16.6336 13.9824 16.6046 13.9817 16.5763 13.9867C16.5481 13.9917 16.5211 14.0022 16.4969 14.0177C16.4727 14.0331 16.4518 14.0532 16.4354 14.0767C16.419 14.1003 16.4074 14.1268 16.4013 14.1549L16.2175 14.9796C16.0305 14.6369 15.7431 14.3598 15.3938 14.1854C15.0446 14.0111 14.6503 13.9479 14.2641 14.0044C13.8778 14.0608 13.5181 14.2342 13.2334 14.5013C12.9487 14.7683 12.7526 15.1162 12.6716 15.498C12.4645 15.3878 12.2335 15.3301 11.9989 15.3301C11.7643 15.3301 11.5333 15.3878 11.3263 15.498C11.2422 15.1182 11.0448 14.7729 10.76 14.5079C10.4752 14.2429 10.1166 14.0708 9.7317 14.0143C9.34682 13.9578 8.95387 14.0197 8.60497 14.1917C8.25607 14.3637 7.96771 14.6377 7.77813 14.9774L7.59876 14.1702C7.58507 14.1146 7.55012 14.0666 7.50142 14.0364C7.45271 14.0063 7.39414 13.9965 7.33828 14.0091C7.28242 14.0217 7.23373 14.0557 7.20267 14.1038C7.17162 14.152 7.16068 14.2103 7.1722 14.2664L7.54188 15.9289C7.66583 18.3785 11.1484 18.4453 11.3634 16.0055C11.5396 15.8529 11.7648 15.7689 11.9978 15.7689C12.2309 15.7689 12.4561 15.8529 12.6322 16.0055C12.6344 16.058 12.6388 16.1105 12.6453 16.163C12.7118 16.6402 12.9559 17.0747 13.3288 17.3798C13.7017 17.6849 14.1759 17.8381 14.6568 17.8088C15.1377 17.7795 15.5899 17.5699 15.923 17.2218C16.2561 16.8738 16.4456 16.4128 16.4537 15.9311L16.8278 14.2511C16.8405 14.1943 16.8301 14.1347 16.7989 14.0855C16.7677 14.0363 16.7184 14.0015 16.6616 13.9886Z" fill="#939393"/>
<path d="M16.8081 10.2455C16.4835 10.1207 16.151 10.0176 15.8128 9.93704C15.524 9.22391 15.1193 8.18048 14.5987 6.82641C14.5467 6.69075 14.4651 6.56836 14.3599 6.4681C14.2548 6.36784 14.1286 6.29223 13.9906 6.24673C13.8523 6.20056 13.7055 6.18545 13.5607 6.20246C13.4159 6.21948 13.2766 6.2682 13.1528 6.34516L12.304 6.87891C12.2157 6.93257 12.1143 6.96095 12.0109 6.96095C11.9075 6.96095 11.8061 6.93257 11.7178 6.87891L10.8537 6.33641C10.7308 6.26127 10.593 6.21373 10.4499 6.19708C10.3068 6.18044 10.1617 6.1951 10.0248 6.24004C9.88795 6.28498 9.76246 6.35912 9.65705 6.45735C9.55163 6.55557 9.46883 6.67553 9.41435 6.80891L8.16091 9.9436C7.1306 10.1668 5.81529 10.7747 5.87501 11.4902C5.96835 14.0863 18.0317 14.0868 18.125 11.4901C18.125 11.1555 17.8953 10.6699 16.8081 10.2455Z" fill="#939393"/>
</svg>
