<svg width="20" height="20" viewBox="0 0 20 20" fill="none" xmlns="http://www.w3.org/2000/svg">
<path d="M16.6593 12.8405C16.6193 12.8315 16.5779 12.8306 16.5375 12.8377C16.4972 12.8449 16.4586 12.8599 16.424 12.882C16.3895 12.904 16.3596 12.9327 16.3362 12.9663C16.3127 13 16.2962 13.0379 16.2874 13.078L16.0249 14.2561C15.7578 13.7666 15.3471 13.3707 14.8482 13.1216C14.3493 12.8725 13.7861 12.7823 13.2343 12.8629C12.6825 12.9436 12.1687 13.1914 11.762 13.5728C11.3553 13.9543 11.0751 14.4512 10.9593 14.9967C10.6635 14.8393 10.3335 14.7569 9.99838 14.7569C9.66326 14.7569 9.33328 14.8393 9.03744 14.9967C8.91743 14.4541 8.63529 13.9608 8.22846 13.5823C7.82163 13.2037 7.30932 12.9578 6.7595 12.8771C6.20968 12.7965 5.64832 12.8849 5.14989 13.1306C4.65146 13.3763 4.23951 13.7678 3.96869 14.253L3.71244 13.0998C3.69289 13.0204 3.64297 12.9518 3.57339 12.9088C3.5038 12.8658 3.42012 12.8517 3.34032 12.8697C3.26052 12.8878 3.19097 12.9363 3.14661 13.0051C3.10224 13.0738 3.08661 13.1572 3.10307 13.2373L3.63119 15.6123C3.80825 19.1117 8.78338 19.2072 9.09057 15.7217C9.34216 15.5037 9.66391 15.3837 9.99683 15.3837C10.3297 15.3837 10.6515 15.5037 10.9031 15.7217C10.9062 15.7967 10.9124 15.8717 10.9218 15.9467C11.0168 16.6284 11.3655 17.2492 11.8982 17.685C12.4309 18.1209 13.1084 18.3397 13.7954 18.2979C14.4824 18.2561 15.1283 17.9566 15.6042 17.4594C16.08 16.9621 16.3508 16.3036 16.3624 15.6154L16.8968 13.2155C16.9149 13.1343 16.9 13.0492 16.8555 12.9789C16.811 12.9086 16.7405 12.8588 16.6593 12.8405Z" fill="#939393"/>
<path d="M16.8688 7.4941C16.4052 7.3158 15.9302 7.1686 15.4469 7.05347C15.0344 6.03472 14.4563 4.5441 13.7126 2.60972C13.6382 2.41592 13.5217 2.24107 13.3714 2.09784C13.2212 1.95462 13.041 1.8466 12.8438 1.7816C12.6462 1.71565 12.4366 1.69406 12.2297 1.71836C12.0228 1.74267 11.8239 1.81227 11.6469 1.92222L10.4344 2.68472C10.3082 2.76137 10.1634 2.80191 10.0157 2.80191C9.86801 2.80191 9.72317 2.76137 9.59694 2.68472L8.36257 1.90972C8.18695 1.80237 7.9901 1.73445 7.78565 1.71068C7.5812 1.68691 7.37402 1.70784 7.17846 1.77204C6.98289 1.83624 6.80361 1.94216 6.65303 2.08248C6.50244 2.2228 6.38414 2.39417 6.30632 2.58472L4.51569 7.06285C3.04382 7.38171 1.16481 8.25011 1.25012 9.27227C1.38346 12.981 18.6169 12.9816 18.7501 9.2722C18.7501 8.7941 18.4219 8.10035 16.8688 7.4941Z" fill="#939393"/>
</svg>
